<?xml version="1.0" standalone="no"?>
<!DOCTYPE svg PUBLIC "-//W3C//DTD SVG 20010904//EN"
 "http://www.w3.org/TR/2001/REC-SVG-20010904/DTD/svg10.dtd">
<svg version="1.0" xmlns="http://www.w3.org/2000/svg"
 width="1920.000000pt" height="1920.000000pt" viewBox="0 0 1920.000000 1920.000000"
 preserveAspectRatio="xMidYMid meet">
<metadata>
Created by potrace 1.14, written by Peter Selinger 2001-2017
</metadata>
<g transform="translate(0.000000,1920.000000) scale(0.100000,-0.100000)"
fill="#000000" stroke="none">
<path d="M14787 12324 c-1 -1 -54 -5 -117 -8 -107 -6 -134 -8 -215 -21 -16 -3
-48 -7 -70 -11 -241 -35 -570 -169 -735 -299 -122 -97 -264 -271 -311 -383
-11 -26 -24 -56 -30 -67 -29 -64 -67 -218 -84 -345 -3 -25 -8 -52 -10 -60 -12
-41 -19 -201 -19 -440 -1 -307 6 -392 50 -595 52 -241 206 -530 361 -676 104
-98 362 -290 608 -454 33 -22 62 -42 65 -45 3 -3 30 -21 60 -40 30 -19 60 -38
65 -42 6 -5 62 -43 125 -85 228 -152 438 -309 536 -400 55 -51 94 -114 118
-192 23 -71 28 -98 41 -186 3 -19 8 -52 11 -72 13 -82 11 -369 -3 -448 -7 -44
-16 -87 -19 -95 -3 -8 -4 -15 -3 -15 1 0 -8 -19 -20 -43 -54 -106 -152 -159
-280 -150 -137 10 -188 63 -227 233 -4 17 -9 248 -11 515 -3 285 -8 487 -14
491 -14 8 -83 3 -86 -7 -2 -5 -16 -31 -31 -58 l-27 -50 -60 1 c-33 1 -66 1
-72 2 -7 1 -25 25 -39 54 -15 28 -28 54 -31 57 -9 10 -1063 5 -1067 -5 -3 -9
-8 -240 -9 -410 0 -94 11 -357 18 -425 22 -201 72 -463 104 -535 5 -11 21 -49
35 -86 103 -254 378 -492 726 -628 47 -18 92 -37 100 -41 62 -30 377 -91 550
-106 145 -12 465 -7 570 10 14 3 59 10 100 16 100 16 92 15 200 43 165 44 215
62 385 143 246 115 472 325 550 509 40 96 86 258 99 350 11 83 15 112 23 180
10 92 10 666 0 775 -29 303 -83 534 -166 715 -31 66 -218 358 -240 375 -4 3
-18 21 -31 40 -36 52 -50 69 -101 124 l-46 49 -89 -31 c-48 -17 -90 -29 -93
-26 -3 2 -6 39 -7 82 -1 42 -2 80 -3 83 0 3 -20 14 -43 24 -24 10 -85 38 -136
62 -51 24 -94 43 -96 43 -2 0 -112 73 -244 163 -133 89 -276 184 -319 211
-171 108 -296 212 -348 286 -66 96 -104 283 -100 499 5 248 65 381 194 427 75
27 177 13 231 -33 42 -35 59 -71 74 -161 12 -66 15 -113 19 -294 1 -24 9 -31
65 -55 l64 -27 -57 -52 -57 -52 3 -94 c2 -51 6 -100 10 -109 7 -13 29 -15 151
-13 144 2 310 9 513 21 139 8 165 8 300 0 61 -3 173 -9 250 -13 77 -3 143 -8
147 -10 11 -7 16 8 23 76 4 36 10 85 14 110 9 60 1 383 -13 505 -2 17 -6 55
-10 86 -45 406 -164 625 -439 809 -238 159 -562 269 -902 305 -101 11 -421 25
-428 19z m729 -1626 c43 -20 46 -23 24 -26 -50 -6 -53 -10 -31 -40 l20 -29
-36 -57 -36 -58 -63 63 c-35 35 -63 67 -62 71 4 9 120 97 129 98 4 0 28 -10
55 -22z m-1506 -2428 c26 0 -1 -16 -31 -18 -18 -1 -35 -5 -38 -7 -3 -3 11 -22
30 -43 67 -72 67 -68 2 -100 l-58 -30 -60 64 c-33 34 -59 66 -57 71 2 4 31 29
64 54 l61 46 38 -19 c21 -10 43 -18 49 -18z m-411 -68 c81 -33 94 -41 63 -43
-12 -1 -26 -3 -32 -4 -5 -1 -21 -3 -35 -4 -14 0 -25 -5 -25 -9 0 -4 27 -43 60
-87 44 -57 57 -81 48 -86 -7 -4 -46 -25 -86 -47 l-74 -40 -95 93 c-52 52 -95
97 -96 102 -1 8 182 152 195 153 4 0 39 -13 77 -28z m679 -91 c33 -13 43 -31
17 -31 -19 0 -19 -3 6 -51 11 -23 19 -43 17 -45 -2 -2 -22 -7 -44 -12 -35 -8
-44 -5 -91 27 -29 20 -52 39 -53 43 0 9 102 89 109 85 3 -2 21 -9 39 -16z
m2301 -682 c18 -6 29 -14 26 -18 -6 -6 -11 -7 -37 -10 -7 0 3 -17 22 -36 18
-19 32 -37 29 -39 -2 -2 -21 -13 -42 -25 l-38 -21 -50 47 -50 48 48 32 c56 37
51 36 92 22z m-228 -215 c42 -17 38 -34 -9 -34 -21 0 -20 -3 19 -56 33 -45 39
-58 28 -66 -33 -21 -89 -48 -101 -47 -7 1 -39 29 -71 63 l-57 63 47 33 c27 19
54 40 61 47 18 17 33 16 83 -3z m29 -296 l45 -22 -32 -4 c-18 -2 -33 -7 -33
-11 0 -4 16 -29 34 -56 19 -27 33 -52 31 -56 -3 -4 -27 -18 -54 -33 l-49 -25
-66 65 -67 66 63 48 c35 27 68 49 73 49 6 0 30 -9 55 -21z"/>
<path d="M2557 9252 c1 -1621 2 -2955 2 -2964 1 -17 40 -18 674 -18 l672 0 0
1926 c0 1654 2 2033 13 1911 1 -13 9 -72 17 -132 9 -61 18 -121 20 -135 3 -27
10 -77 25 -175 5 -33 12 -80 15 -105 3 -25 7 -56 10 -70 2 -14 7 -41 9 -60 3
-19 7 -44 10 -55 2 -11 7 -45 10 -75 4 -30 8 -66 11 -80 2 -14 9 -61 15 -105
6 -44 13 -91 15 -105 3 -14 7 -45 10 -70 3 -25 7 -56 10 -70 9 -45 19 -115 30
-205 4 -33 8 -67 10 -75 3 -18 15 -93 21 -135 2 -16 6 -41 9 -55 2 -14 7 -43
9 -65 3 -22 15 -105 26 -185 12 -80 23 -163 26 -185 2 -22 9 -62 14 -90 5 -27
12 -72 15 -100 7 -57 14 -108 20 -145 5 -28 33 -226 40 -280 3 -19 7 -46 10
-60 2 -14 6 -41 9 -60 9 -69 19 -135 22 -154 2 -11 8 -54 14 -95 6 -42 12 -87
14 -101 2 -14 7 -47 11 -75 4 -27 9 -59 11 -70 1 -11 5 -41 9 -66 3 -26 7 -55
9 -65 2 -11 7 -44 11 -74 4 -30 9 -62 10 -70 1 -8 6 -40 11 -70 4 -30 9 -58
10 -62 1 -5 2 -19 3 -33 l1 -25 480 0 480 0 2 23 c0 12 2 27 3 32 1 9 10 74
20 145 5 38 14 100 21 150 10 67 12 89 19 155 4 32 8 62 10 66 3 3 7 33 10 65
4 32 10 86 15 119 5 33 12 80 15 105 3 25 10 77 15 115 6 39 12 90 15 115 3
25 10 72 15 105 5 33 12 85 15 115 7 61 14 113 20 150 3 14 7 48 11 75 3 28 7
61 9 75 2 14 7 48 10 75 4 28 8 57 10 65 2 8 7 43 10 78 4 35 8 73 11 85 2 12
6 42 9 67 3 25 8 63 11 84 4 21 8 53 9 70 2 17 6 45 8 61 3 17 8 53 12 80 3
28 8 61 10 75 2 14 9 63 15 110 6 47 13 103 16 125 3 22 7 56 10 75 6 47 16
111 19 132 2 9 6 44 10 77 3 33 7 68 9 78 5 25 15 99 21 158 3 28 8 61 10 75
3 14 7 39 9 55 2 17 7 48 10 70 4 22 8 59 11 83 8 67 14 115 19 137 2 11 7 47
10 80 7 56 12 95 21 155 2 14 7 51 10 83 4 31 11 57 15 57 4 0 7 -874 8 -1942
0 -1069 1 -1946 1 -1950 1 -5 303 -8 671 -8 l670 0 0 23 c0 12 -4 49 -9 82 -5
33 -12 83 -16 110 -7 63 -14 87 -24 81 -4 -3 -70 -8 -147 -11 -76 -3 -173 -8
-214 -10 -41 -3 -133 -7 -205 -10 -71 -3 -154 -8 -184 -10 -30 -3 -52 -3 -50
0 6 5 54 14 121 20 30 3 63 7 74 9 10 2 44 7 74 11 30 3 66 8 80 10 14 2 52 7
85 11 33 3 67 7 75 9 8 1 44 6 80 10 36 4 74 9 85 11 11 2 43 7 70 10 28 4 57
8 65 10 8 1 21 3 28 3 11 1 13 490 10 2771 -2 1523 -6 2771 -9 2774 -2 2 -452
7 -1000 9 l-997 5 -7 -66 c-4 -36 -8 -75 -10 -86 -2 -12 -6 -41 -9 -66 -10
-86 -36 -295 -41 -326 -2 -17 -11 -87 -20 -155 -16 -125 -20 -162 -30 -234 -2
-22 -7 -60 -10 -85 -3 -25 -7 -61 -10 -80 -2 -19 -14 -107 -25 -195 -11 -88
-23 -180 -26 -205 -3 -25 -7 -56 -9 -70 -3 -14 -7 -52 -10 -85 -4 -33 -8 -67
-10 -75 -2 -8 -7 -42 -11 -75 -3 -33 -8 -73 -10 -90 -2 -16 -6 -48 -9 -70 -3
-22 -8 -58 -11 -80 -2 -22 -7 -56 -9 -75 -3 -19 -7 -53 -10 -75 -2 -22 -7 -60
-10 -85 -12 -89 -14 -106 -20 -156 -3 -28 -7 -59 -9 -70 -2 -10 -9 -70 -16
-132 -7 -62 -14 -111 -16 -110 -3 4 -11 45 -20 107 -3 25 -7 57 -9 71 -2 14
-7 48 -10 75 -3 28 -10 73 -15 100 -5 28 -11 73 -14 100 -3 28 -8 59 -10 70
-2 11 -7 45 -11 75 -4 30 -9 62 -10 70 -2 8 -6 42 -10 75 -3 32 -8 62 -10 65
-1 3 -6 36 -10 75 -4 38 -8 72 -10 75 -2 3 -6 30 -9 60 -4 30 -8 66 -10 80 -8
42 -16 103 -22 145 -4 37 -38 283 -50 365 -3 19 -7 51 -10 70 -3 19 -7 46 -9
60 -2 14 -7 52 -11 85 -3 33 -8 62 -9 65 -2 3 -6 29 -10 59 -4 30 -9 63 -11
75 -2 12 -6 46 -9 76 -4 30 -8 62 -10 70 -4 13 -18 106 -50 325 -3 22 -10 63
-15 90 -6 28 -12 66 -15 85 -3 19 -6 44 -8 55 -4 20 -13 20 -1003 22 l-999 3
2 -2948z m682 2744 c7 -4 7 -30 2 -68 -1 -4 -17 -5 -36 -4 -19 2 -35 1 -35 -3
0 -3 -12 -19 -26 -35 l-26 -29 -24 29 c-31 39 -30 50 11 100 l35 42 45 -14
c25 -7 49 -16 54 -18z m-259 -100 l65 -13 -72 -22 c-40 -13 -73 -24 -73 -26 0
-2 27 -18 61 -36 l60 -32 -58 -29 c-31 -15 -60 -28 -64 -28 -4 0 -14 29 -23
65 -15 61 -15 69 0 100 18 39 15 39 104 21z m2987 -1668 c-3 -8 -6 -5 -6 6 -1
11 2 17 5 13 3 -3 4 -12 1 -19z m3 -33 c0 -8 -4 -15 -10 -15 -5 0 -7 7 -4 15
4 8 8 15 10 15 2 0 4 -7 4 -15z m1120 -3131 c25 -9 50 -21 56 -25 10 -8 13
-193 3 -203 -2 -2 -53 4 -114 15 -117 20 -121 22 -185 109 l-18 25 60 67 60
67 47 -19 c25 -10 66 -26 91 -36z"/>
<path d="M10197 11214 c-1 -1 -22 -5 -47 -8 -311 -42 -604 -272 -780 -609 -25
-48 -49 -87 -53 -87 -5 0 -6 4 -3 8 3 5 8 44 11 88 4 43 8 95 10 114 2 19 7
69 10 110 4 41 8 86 10 100 2 14 7 64 10 113 l7 87 -739 0 -739 0 0 -2430 0
-2430 738 0 c583 0 738 3 739 13 0 6 2 566 4 1242 2 677 6 1250 9 1275 3 25 8
79 11 120 13 155 32 231 75 302 42 68 68 95 135 142 75 53 111 70 205 95 114
30 196 40 413 50 l27 1 0 853 0 853 -25 0 c-14 0 -27 -1 -28 -2z"/>
<path d="M11766 7472 c-2 -4 -4 -276 -4 -604 l0 -598 558 0 559 0 -1 604 0
605 -554 -1 c-305 0 -556 -3 -558 -6z"/>
</g>
</svg>
