<?xml version="1.0" encoding="utf-8"?>
<!-- Svg Vector Icons : http://www.onlinewebfonts.com/icon -->
<!DOCTYPE svg PUBLIC "-//W3C//DTD SVG 1.1//EN" "http://www.w3.org/Graphics/SVG/1.1/DTD/svg11.dtd">
<svg version="1.1" xmlns="http://www.w3.org/2000/svg" xmlns:xlink="http://www.w3.org/1999/xlink" x="0px" y="0px" viewBox="0 0 256 256" enable-background="new 0 0 256 256" xml:space="preserve">
<metadata> Svg Vector Icons : http://www.onlinewebfonts.com/icon </metadata>
<g><g><g><path fill="#000000" d="M78.3,25.7l-3.9,7.7L71,32.4c-7.3-2.3-15.4-2.4-23.5-0.4C18.9,39.2,5.3,72.6,20.7,97.7c4,6.5,12.2,14.1,17.8,16.6c0.8,0.4,1.4,0.8,1.4,1c0,0.2-0.8,2.8-1.8,5.7c-3.1,9.1-4.2,15.1-4.5,25.6c-0.2,5.9,0,10.7,0.3,13.6c0.6,4.8,2.6,13.5,4.1,17.9c0.6,1.5,0.9,2.8,0.9,2.8c-0.1,0-3.6,1.6-8,3.5c-4.3,1.8-7.9,3.4-8,3.5c-0.2,0.2,37.3,15,38.3,15.1c0.7,0.1,2.1-2.9,8.4-19c4.2-10.5,7.5-19.2,7.4-19.3c-0.1-0.1-3.4,1.2-7.3,2.9c-3.9,1.7-7.3,3.2-7.6,3.3c-0.8,0.3-2.7-6.2-3.6-12.4c-1.3-9.2-0.4-20.2,2.6-29c5.3-16,18-30.2,33.2-37.3c8.4-3.9,15.1-5.5,24.6-5.9c11.6-0.5,20.1,1.4,30.4,6.5c7.1,3.5,12.5,7.5,17.8,13.1c9,9.4,14.8,21.1,16.8,33.8c0.9,5.6,0.6,17.7-0.5,22.7c-1.8,7.9-5.2,15.9-9.6,22.6c-1.3,2-4.8,6.1-7.7,9c-7.9,8-15.4,12.7-26,16c-9,2.9-7.2,2.8-71.6,2.8H10v12.4v12.4h56.6c33.6,0,58.7-0.2,61.9-0.5c35.5-3.1,65.3-26.5,76.5-60.2c10.4-31.3,2.4-65.8-20.8-89.3c-13.8-14-31-22.7-50.3-25.5c-5.9-0.8-18.1-1-23.6-0.2c-9.9,1.4-19.5,4.3-27.9,8.5c-9.6,4.8-16.5,9.9-24.3,17.9c-2.6,2.7-5,4.9-5.3,4.9c-1.3,0-5.3-2.4-7.6-4.3c-1.7-1.5-3-3.3-4.1-5.7c-1.6-3.1-1.8-3.9-1.9-7.8c-0.1-3.6,0-4.8,0.8-7.1c2.9-7.8,9.4-12.7,17.3-13.1c2.1-0.1,4.3-0.1,5,0.1l1.2,0.3l-3.7,7.4c-2,4.1-3.6,7.5-3.5,7.6c0.2,0.2,38.6-12.7,39.2-13.2c0.3-0.3-12.3-38.5-13-39.3C82.2,18.1,80.4,21.4,78.3,25.7z"/><path fill="#000000" d="M191.9,216.3c-6,6.6-17.3,15.2-25.3,19.2c-2,1-3.6,1.9-3.6,2c0,0.1,18.7,0.2,41.5,0.2H246v-12.4v-12.4h-25.4h-25.5L191.9,216.3z"/></g></g></g>
</svg>