<?xml version="1.0" encoding="UTF-8" standalone="no"?>
<svg
   xmlns:dc="http://purl.org/dc/elements/1.1/"
   xmlns:cc="http://creativecommons.org/ns#"
   xmlns:rdf="http://www.w3.org/1999/02/22-rdf-syntax-ns#"
   xmlns:svg="http://www.w3.org/2000/svg"
   xmlns="http://www.w3.org/2000/svg"
   viewBox="0 0 424 174.66667"
   height="174.66667"
   width="424"
   xml:space="preserve"
   id="svg2"
   version="1.1"><metadata
     id="metadata8"><rdf:RDF><cc:Work
         rdf:about=""><dc:format>image/svg+xml</dc:format><dc:type
           rdf:resource="http://purl.org/dc/dcmitype/StillImage" /></cc:Work></rdf:RDF></metadata><defs
     id="defs6" /><g
     transform="matrix(1.3333333,0,0,-1.3333333,0,174.66667)"
     id="g10"><g
       transform="scale(0.1)"
       id="g12"><path
         id="path14"
         style="fill:#ffffff;fill-opacity:1;fill-rule:evenodd;stroke:none"
         d="m 32.7656,0.34375 h 3146.35 V 1304.2337 H 32.7656 Z" /><path
         id="path16"
         style="fill:#28166f;fill-opacity:1;fill-rule:evenodd;stroke:none"
         d="m 999.66,1275.89 h 592.11 L 1506.73,28.6875 H 917.773 Z" /><path
         id="path18"
         style="fill:#0086ce;fill-opacity:1;fill-rule:evenodd;stroke:none"
         d="m 2019.47,1219.2 h 3.78 l 6.3,-0.63 9.45,-0.63 10.7,-0.63 10.08,-0.63 10.08,-1.26 9.45,-1.89 8.82,-1.89 10.08,-2.52 6.93,-1.89 8.18,-2.52 8.82,-3.15 8.82,-3.15 9.45,-3.78 10.08,-3.77 10.71,-5.04 10.07,-4.41 10.71,-5.67 9.45,-5.67 9.45,-5.67 9.45,-5.67 8.19,-6.3 8.19,-6.3 7.56,-6.3 8.18,-7.56 6.93,-7.56 7.56,-8.18 6.93,-8.82 6.93,-9.45 6.93,-8.82 5.67,-10.08 5.67,-9.45 5.04,-8.82 4.41,-8.81 3.77,-8.82 3.16,-8.19 3.14,-8.19 2.52,-8.82 2.52,-8.82 1.26,-9.444 1.89,-8.82 0.63,-9.449 0.63,-9.45 0.63,-9.445 v -8.82 l -0.63,-8.821 v -8.187 l -0.63,-7.559 -0.63,-7.558 -0.63,-7.559 -0.63,-8.187 -0.63,-8.192 -0.63,-8.187 -1.26,-9.449 -1.89,-8.817 -1.89,-9.449 -1.89,-9.449 -2.52,-9.45 -3.15,-9.449 -3.14,-8.816 -4.41,-8.82 -3.79,-8.188 -4.4,-8.187 -5.04,-8.821 -5.04,-8.816 -6.3,-8.821 -6.93,-9.449 -7.56,-10.078 -7.56,-8.816 -8.19,-9.449 -8.18,-8.821 -8.82,-8.187 -8.19,-7.559 -8.82,-7.558 -8.19,-6.301 -9.45,-6.297 -9.45,-6.301 -9.45,-5.668 -10.7,-5.668 -10.71,-5.672 -10.71,-5.668 -11.34,-4.41 -11.34,-5.039 -10.7,-3.777 -10.08,-3.782 -9.45,-3.148 -8.82,-3.148 -8.82,-2.524 -7.56,-1.887 -10.07,-2.519 -9.45,-1.891 -9.45,-1.89 -10.08,-1.258 -10.71,-0.633 -10.71,-0.629 -9.44,-0.629 -6.31,-0.629 h -3.14 -0.64" /><path
         id="path20"
         style="fill:#0086ce;fill-opacity:1;fill-rule:evenodd;stroke:none"
         d="m 158.742,623.945 v -3.781 l -0.629,-6.93 v -11.336 l -0.629,-13.859 -0.629,-14.488 v -13.856 -12.597 l 0.629,-11.34 0.629,-10.707 1.262,-9.449 1.258,-10.079 1.262,-8.187 1.89,-8.82 1.887,-8.821 2.519,-9.445 3.153,-10.078 3.777,-10.082 3.781,-10.078 3.778,-9.446 5.039,-10.082 4.41,-9.445 5.039,-8.82 5.668,-8.817 5.039,-8.191 6.301,-7.559 6.297,-7.558 6.3,-6.93 7.559,-7.559 8.188,-6.929 8.191,-6.926 9.445,-6.93 10.082,-6.929 10.078,-6.297 10.707,-5.672 10.707,-5.039 10.711,-5.039 10.707,-3.778 10.707,-3.781 10.711,-3.148 9.446,-1.891 10.078,-2.519 10.711,-1.891 10.707,-1.258 11.969,-1.89 11.968,-1.258 11.969,-0.633 12.598,-1.258 13.226,-0.629 12.598,-0.633 h 12.598 l 12.597,-0.629 H 497 h 11.969 11.34 11.336 11.339 11.969 11.336 12.598 l 12.597,0.629 h 12.598 l 12.598,0.633 13.23,0.629 12.598,1.258 12.597,0.633 12.598,1.258 11.969,1.89 11.336,1.258 10.711,1.891 10.707,2.519 10.078,1.891 10.078,3.148 10.078,2.52 10.078,3.781 10.078,3.777 10.082,4.41 10.079,4.411 10.707,5.668 9.449,5.039 10.078,5.668 9.449,6.3 8.817,6.297 8.191,6.301 7.559,6.301 7.558,6.297 6.926,6.3 6.301,6.297 6.929,7.559 6.297,8.191 6.301,8.817 6.297,8.82 5.672,9.445 5.668,10.082 5.039,9.446 5.039,10.078 4.41,10.082 3.777,10.078 3.782,9.445 3.148,8.821 2.52,8.82 2.519,8.187 2.52,10.079 1.89,9.449 1.891,10.707 1.887,11.34 1.89,12.597 1.262,13.856 1.891,14.488 1.257,13.859 1.262,11.336 0.629,6.93 v 3.149 0.632" /><path
         id="path22"
         style="fill:#ffffff;fill-opacity:1;fill-rule:evenodd;stroke:none"
         d="m 928.48,280.648 h 198.42 l 23.31,343.297 h 333.84 l 13.86,198.418 h -333.84 l 13.22,198.417 h 396.84 l 13.86,198.42 H 992.73" /><path
         id="path24"
         style="fill:#0086ce;fill-opacity:1;fill-rule:evenodd;stroke:none"
         d="M 753.371,623.945 H 951.789 L 992.73,1219.2 H 794.313" /><path
         id="path26"
         style="fill:#0086ce;fill-opacity:1;fill-rule:evenodd;stroke:none"
         d="m 2273.32,280.648 h 198.42 l 64.25,938.552 h -198.42" /><path
         id="path28"
         style="fill:#0086ce;fill-opacity:1;fill-rule:evenodd;stroke:none"
         d="m 2337.57,1219.2 h 239.36 l 517.15,-938.552 h -233.06 z" /><path
         id="path30"
         style="fill:#0086ce;fill-opacity:1;fill-rule:evenodd;stroke:none"
         d="m 2895.66,280.648 h 198.42 l 64.25,938.552 h -198.42" /><path
         id="path32"
         style="fill:#0086ce;fill-opacity:1;fill-rule:evenodd;stroke:none"
         d="M 158.742,623.945 H 357.164 L 398.105,1219.2 H 199.688" /><path
         id="path34"
         style="fill:#0086ce;fill-opacity:1;fill-rule:evenodd;stroke:none"
         d="m 2062.3,280.648 h 211.02 l -99.53,343.297 h -207.86" /><path
         id="path36"
         style="fill:#0086ce;fill-opacity:1;fill-rule:evenodd;stroke:none"
         d="m 1523.74,280.648 h 198.42 l 23.3,343.297 h 233.06 l 13.86,198.418 h -233.06 l 13.23,198.417 h 233.06 l 13.86,198.42 h -431.48" /><path
         id="path38"
         style="fill:#ffffff;fill-opacity:1;fill-rule:evenodd;stroke:none"
         d="m 1772.55,1020.78 h 233.06 l -13.23,-198.417 h -233.06 z" /><path
         id="path40"
         style="fill:#0086ce;fill-opacity:1;fill-rule:evenodd;stroke:none"
         d="m 1523.74,280.648 h 198.42 l 23.3,343.297 h 233.06 l 13.86,198.418 h -233.06 l 13.23,198.417 h 233.06 l 13.86,198.42 h -431.48" /><path
         id="path42"
         style="fill:#ffffff;fill-opacity:1;fill-rule:evenodd;stroke:none"
         d="m 2005.61,1020.78 h 6.3 l 8.82,-0.63 8.19,-1.26 6.93,-1.26 7.56,-1.89 5.04,-1.26 5.03,-1.89 5.67,-1.89 6.3,-2.52 6.3,-3.14 6.93,-3.79 5.67,-3.145 6.3,-4.41 5.67,-3.781 5.04,-4.406 4.41,-5.039 5.03,-5.039 4.41,-5.672 3.78,-6.926 3.78,-6.93 2.52,-6.929 2.52,-6.93 1.26,-6.93 0.63,-6.925 v -6.301 l -1.26,-6.93 -1.89,-6.297 -2.52,-6.93 -3.15,-7.558 -4.41,-6.93 -4.41,-6.929 -5.67,-6.297 -5.03,-6.301 -5.67,-5.039 -5.04,-5.039 -5.67,-4.41 -6.3,-3.778 -6.3,-4.41 -6.3,-3.148 -6.93,-3.782 -6.29,-3.148 -6.31,-2.52 -6.3,-1.89 -5.04,-1.891 -5.03,-1.887 -7.56,-1.261 -6.93,-1.258 -8.19,-1.262 -8.82,-0.629 h -5.04 -1.26" /><path
         id="path44"
         style="fill:#ffffff;fill-opacity:1;fill-rule:evenodd;stroke:none"
         d="m 357.164,623.945 v -30.867 l 0.629,-13.855 1.258,-14.489 1.262,-13.23 1.89,-11.336 2.52,-10.078 3.148,-8.82 3.777,-6.93 5.043,-6.297 5.668,-5.039 5.668,-3.781 6.93,-3.149 6.93,-3.148 8.816,-3.153 8.82,-1.886 10.079,-2.52 10.707,-1.262 11.339,-1.89 11.969,-0.629 11.965,-1.258 11.969,-0.633 h 11.969 l 11.968,-0.629 h 11.969 11.336 11.34 11.34 11.336 11.968 l 11.969,0.629 h 11.969 l 11.965,0.633 11.968,1.258 11.969,0.629 11.34,1.89 11.336,1.262 10.078,2.52 9.449,1.886 8.821,3.153 7.558,3.148 6.93,3.149 6.297,3.781 6.301,5.039 5.668,6.297 5.039,6.93 3.777,8.82 3.781,10.078 3.781,11.336 3.149,13.23 2.519,14.489 2.52,13.855 1.891,12.598 1.257,9.449 0.629,5.668 0.633,2.52 v 0.632" /><path
         id="path46"
         style="fill:#ffffff;fill-opacity:1;fill-rule:evenodd;stroke:none"
         d="m 542.984,749.926 19.528,-1.262 19.523,-2.519 17.008,-4.411 16.379,-4.41 13.859,-5.039 12.598,-5.039 11.336,-5.039 10.078,-4.406 9.449,-5.039 8.188,-5.043 8.82,-5.039 8.188,-5.039 8.191,-6.297 8.816,-6.301 8.188,-7.559 8.82,-8.816 7.559,-9.449 6.929,-10.707 5.039,-11.969 1.891,-12.598 -1.891,-12.597 -5.039,-11.969 -6.929,-10.711 -7.559,-9.445 -8.82,-8.821 -8.188,-7.558 -8.816,-6.301 -8.191,-6.297 -8.188,-5.039 -8.82,-5.039 -8.188,-5.039 -9.449,-5.039 -10.078,-4.41 -11.336,-5.039 -12.598,-5.039 -13.859,-5.039 -16.379,-4.411 -17.008,-4.41 -19.523,-2.519 -19.528,-1.258 -19.527,1.258 -18.269,2.519 -17.004,4.41 -14.489,4.411 -12.597,5.039 -11.34,5.039 -9.449,5.039 -8.817,4.41 -7.558,5.039 -6.93,5.039 -6.93,5.039 -6.301,5.039 -6.925,6.297 -6.93,6.301 -6.93,7.558 -7.558,8.821 -6.301,9.445 -6.297,10.711 -3.781,11.969 -1.887,12.597 1.887,12.598 3.781,11.969 6.297,10.707 6.301,9.449 7.558,8.816 6.93,7.559 6.93,6.301 6.925,6.297 6.301,5.039 6.93,5.039 6.93,5.043 7.558,5.039 8.817,4.406 9.449,5.039 11.34,5.039 12.597,5.039 14.489,4.41 17.004,4.411 18.269,2.519" /><path
         id="path48"
         style="fill:#0086ce;fill-opacity:1;fill-rule:evenodd;stroke:none"
         d="m 854.785,696.383 13.856,-1.262 12.597,-3.148 10.711,-3.778 8.817,-3.781 7.558,-4.41 5.672,-3.777 5.668,-3.782 5.668,-4.41 5.039,-4.406 5.039,-5.672 5.668,-6.926 5.039,-7.558 3.781,-9.45 1.891,-10.078 -1.891,-10.078 -3.781,-9.449 -5.039,-7.559 -5.668,-6.929 -5.039,-5.668 -5.039,-4.41 -5.668,-4.411 -5.668,-3.777 -5.672,-3.781 -7.558,-4.41 -8.817,-3.778 -10.711,-3.781 -12.597,-3.148 -13.856,-1.262 -11.969,1.262 -11.968,1.89 -10.078,3.778 -8.821,3.148 -6.926,3.781 -6.929,3.149 -5.672,3.781 -5.039,3.148 -5.039,3.782 -4.406,3.777 -5.04,5.039 -5.043,5.039 -5.039,6.301 -4.406,7.559 -3.781,8.187 -1.258,8.82 1.258,8.817 3.781,8.191 4.406,7.559 5.039,6.297 5.043,5.039 5.04,5.039 4.406,3.781 5.039,3.777 5.039,3.153 5.672,3.777 6.929,3.148 6.926,3.782 8.821,3.148 10.078,3.781 11.968,1.887" /><path
         id="path50"
         style="fill:#0086ce;fill-opacity:1;fill-rule:evenodd;stroke:none"
         d="m 259.527,696.383 13.86,-1.262 12.597,-3.148 10.707,-3.778 8.821,-3.781 7.558,-4.41 6.297,-3.777 5.672,-3.782 5.039,-4.41 5.039,-4.406 5.668,-5.672 5.668,-6.926 5.039,-7.558 3.781,-9.45 1.891,-10.078 -1.891,-10.078 -3.781,-9.449 -5.039,-7.559 -5.668,-6.929 -5.668,-5.668 -5.039,-4.41 -5.039,-4.411 -5.672,-3.777 -6.297,-3.781 -7.558,-4.41 -8.821,-3.778 -10.707,-3.781 -12.597,-3.148 -13.86,-1.262 -11.968,1.262 -11.965,1.89 -10.082,3.778 -8.188,3.148 -7.558,3.781 -6.297,3.149 -5.672,3.781 -5.039,3.148 -5.039,3.782 -5.039,3.777 -4.41,5.039 -5.04,5.039 -5.039,6.301 -4.406,7.559 -3.781,8.187 -1.262,8.82 1.262,8.817 3.781,8.191 4.406,7.559 5.039,6.297 5.04,5.039 4.41,5.039 5.039,3.781 5.039,3.777 5.039,3.153 5.672,3.777 6.297,3.148 7.558,3.782 8.188,3.148 10.082,3.781 11.965,1.887" /><path
         id="path52"
         style="fill:#0086ce;fill-opacity:1;fill-rule:evenodd;stroke:none"
         d="m 2064.19,680.637 14.49,-1.262 13.23,-1.891 11.34,-3.148 10.07,-3.148 8.19,-3.153 6.93,-3.148 6.3,-3.149 6.3,-3.148 5.67,-3.781 6.3,-4.411 6.3,-5.039 5.67,-6.296 4.41,-6.93 1.88,-8.188 -1.88,-8.191 -4.41,-6.926 -5.67,-6.301 -6.3,-5.039 -6.3,-4.41 -5.67,-3.777 -6.3,-3.153 -6.3,-3.148 -6.93,-3.148 -8.19,-3.149 -10.07,-3.152 -11.34,-3.149 -13.23,-1.89 -14.49,-1.258 -14.49,1.258 -12.59,1.89 -11.34,3.149 -8.82,3.152 -7.56,3.149 -5.67,3.148 -5.67,3.148 -5.04,3.153 -5.67,3.777 -5.04,4.41 -5.66,5.039 -5.04,6.301 -3.78,6.926 -1.89,8.191 1.89,8.188 3.78,6.93 5.04,6.296 5.66,5.039 5.04,4.411 5.67,3.781 5.04,3.148 5.67,3.149 5.67,3.148 7.56,3.153 8.82,3.148 11.34,3.148 12.59,1.891" /><path
         id="path54"
         style="fill:#0086ce;fill-opacity:1;fill-rule:evenodd;stroke:none"
         d="m 1931.91,724.727 v -13.856 l 1.26,-12.598 1.89,-11.339 2.52,-8.817 2.52,-8.191 2.52,-6.297 2.52,-5.672 2.52,-5.668 3.15,-5.668 3.78,-5.668 4.41,-5.672 5.67,-5.039 6.29,-4.41 7.56,-1.887 7.57,1.887 6.92,4.41 6.3,5.039 5.67,5.672 4.41,5.668 3.78,5.668 3.15,5.668 3.78,5.672 3.15,6.297 3.78,8.191 3.15,8.817 3.78,11.339 3.15,12.598 1.89,13.856 v 13.859 l -1.27,12.598 -1.88,10.707 -2.52,8.82 -2.52,7.559 -2.52,6.3 -2.52,5.668 -2.52,5.039 -3.15,5.039 -3.78,5.668 -4.41,5.668 -5.67,5.043 -6.3,3.778 -7.56,1.89 -7.56,-1.89 -6.93,-3.778 -6.29,-5.043 -5.67,-5.668 -4.41,-5.668 -3.78,-5.039 -3.15,-5.039 -3.78,-5.668 -3.15,-6.3 -3.78,-7.559 -3.15,-8.82 -3.78,-10.707 -3.15,-12.598" /><path
         id="path56"
         style="fill:#0086ce;fill-opacity:1;fill-rule:evenodd;stroke:none"
         d="m 1957.11,1121.57 v -13.86 l 1.26,-12.6 2.52,-11.34 2.52,-8.82 2.52,-8.18 2.52,-6.31 3.15,-5.66 2.52,-5.67 3.15,-5.67 3.78,-5.67 5.04,-5.67 5.66,-5.04 6.3,-4.41 7.56,-1.89 7.56,1.89 6.93,4.41 6.3,5.04 5.04,5.67 4.41,5.67 3.78,5.67 3.14,5.67 3.16,5.66 3.14,6.31 3.15,8.18 3.78,8.82 3.15,11.34 3.15,12.6 1.89,13.86 v 13.85 l -1.26,12.6 -1.89,10.71 -2.52,8.82 -1.89,7.56 -2.52,6.3 -2.52,5.66 -2.52,5.04 -2.52,5.04 -3.78,5.67 -4.4,5.67 -5.04,5.04 -6.3,3.78 -7.56,1.89 -7.56,-1.89 -7.56,-3.78 -6.3,-5.04 -5.04,-5.67 -5.04,-5.67 -3.77,-5.04 -3.79,-5.04 -3.14,-5.66 -3.79,-6.3 -3.77,-7.56 -3.78,-8.82 -3.78,-10.71 -3.15,-12.6" /><path
         id="path58"
         style="fill:#ffffff;fill-opacity:1;fill-rule:evenodd;stroke:none"
         d="m 1938.21,926.297 v -13.859 l 1.89,-13.227 2.52,-10.707 2.52,-9.449 3.15,-8.192 2.52,-6.925 3.15,-6.301 2.52,-5.668 3.78,-5.672 4.41,-6.297 5.04,-5.668 6.29,-5.672 7.57,-4.406 8.81,-1.891 8.19,1.258 6.93,3.781 6.93,4.411 6.3,5.039 5.04,5.668 4.41,5.039 3.78,5.039 3.77,5.039 3.79,5.668 3.14,5.672 3.79,6.925 3.77,7.559 3.78,8.82 3.78,10.078 2.52,11.34 1.89,12.598 v 11.969 l -1.26,11.336 -2.52,10.078 -2.52,8.191 -3.15,6.926 -2.52,5.672 -3.15,5.039 -2.52,4.406 -3.14,4.41 -3.16,4.41 -3.77,4.406 -4.41,4.41 -5.67,4.41 -6.3,4.41 -6.93,3.15 -7.56,1.26 -8.82,-1.89 -8.18,-3.78 -6.93,-5.04 -6.3,-5.03 -5.04,-5.044 -3.78,-5.039 -3.78,-5.043 -3.78,-5.039 -3.78,-6.297 -3.78,-6.93 -3.78,-8.816 -3.78,-10.082 -3.78,-12.598" /><g
         transform="scale(10)"
         id="g60"><text
           id="text64"
           style="font-style:oblique;font-variant:normal;font-size:11.33819962px;font-family:Helvetica;-inkscape-font-specification:Helvetica-Oblique;writing-mode:lr-tb;fill:#28166f;fill-opacity:1;fill-rule:nonzero;stroke:none"
           transform="matrix(1,0,0,-1,6.10156,8.53789)"><tspan
             id="tspan62"
             y="0"
             x="0 8.1861801 16.37236 19.52438 27.08696 34.64954 42.83572 50.3983 53.55032 61.7365 69.29908 77.48526 144.57146 152.75764 161.57877 164.73077 172.91696 176.06898 184.89011 188.04211 196.86324 205.04942 212.612 220.79817 228.98436 236.54694 239.69896 247.88513 256.70627 259.85828 268.04446 276.86557 285.05176 291.9794">UNIVERSIDADEDO RIO GRANDE DO NORTE</tspan></text>
</g><g
         transform="scale(10)"
         id="g66"><text
           id="text70"
           style="font-style:oblique;font-variant:normal;font-weight:bold;font-size:11.33819962px;font-family:Helvetica;-inkscape-font-specification:Helvetica-BoldOblique;writing-mode:lr-tb;fill:#ffffff;fill-opacity:1;fill-rule:nonzero;stroke:none"
           transform="matrix(1,0,0,-1,93.984,8.53789)"><tspan
             id="tspan68"
             y="0"
             x="0 6.9276404 14.49022 22.676399 30.238979 38.425159 46.61134">FEDERAL</tspan></text>
</g></g></g></svg>